<?xml version="1.0" encoding="UTF-8" standalone="no"?>
<!-- Created with Inkscape (http://www.inkscape.org/) -->

<svg
   width="11.504451mm"
   height="10.863734mm"
   viewBox="0 0 11.504451 10.863734"
   version="1.1"
   id="svg1"
   inkscape:version="1.4 (e7c3feb1, 2024-10-09)"
   sodipodi:docname="fullscreen.svg"
   xmlns:inkscape="http://www.inkscape.org/namespaces/inkscape"
   xmlns:sodipodi="http://sodipodi.sourceforge.net/DTD/sodipodi-0.dtd"
   xmlns="http://www.w3.org/2000/svg"
   xmlns:svg="http://www.w3.org/2000/svg">
  <sodipodi:namedview
     id="namedview1"
     pagecolor="#ffffff"
     bordercolor="#000000"
     borderopacity="0.25"
     inkscape:showpageshadow="2"
     inkscape:pageopacity="0.0"
     inkscape:pagecheckerboard="0"
     inkscape:deskcolor="#d1d1d1"
     inkscape:document-units="mm"
     inkscape:zoom="7.5096716"
     inkscape:cx="15.579909"
     inkscape:cy="22.903798"
     inkscape:window-width="1800"
     inkscape:window-height="1097"
     inkscape:window-x="0"
     inkscape:window-y="44"
     inkscape:window-maximized="1"
     inkscape:current-layer="layer1" />
  <defs
     id="defs1" />
  <g
     inkscape:label="Layer 1"
     inkscape:groupmode="layer"
     id="layer1"
     transform="translate(-107.24439,-119.49574)">
    <path
       style="font-variation-settings:normal;opacity:1;vector-effect:none;fill:none;fill-opacity:1;stroke:#000000;stroke-width:1;stroke-linecap:butt;stroke-linejoin:miter;stroke-miterlimit:4;stroke-dasharray:none;stroke-dashoffset:0;stroke-opacity:1;-inkscape-stroke:none;stop-color:#000000;stop-opacity:1"
       d="m 107.77999,124.10381 c 0.009,-0.3479 -0.003,-0.69238 -0.0356,-1.03363 v -2.45925 c 0.11519,-0.13765 0.0744,-0.42335 0.34925,-0.3919 0.20402,-0.10499 0.43174,-0.20667 0.68402,-0.178 0.38156,-0.0773 0.79575,-0.0162 1.19097,-0.0356 h 1.5533"
       id="path1"
       sodipodi:nodetypes="ccccccc" />
    <path
       style="font-variation-settings:normal;opacity:1;vector-effect:none;fill:none;fill-opacity:1;stroke:#000000;stroke-width:1;stroke-linecap:butt;stroke-linejoin:miter;stroke-miterlimit:4;stroke-dasharray:none;stroke-dashoffset:0;stroke-opacity:1;-inkscape-stroke:none;stop-color:#000000;stop-opacity:1"
       d="m 107.88691,126.49724 c -0.004,0.53528 0.0178,1.07703 -0.0356,1.60045 0.0227,0.48334 -0.10353,0.94484 -0.0712,1.42916 -0.0263,0.20424 0.30299,0.0555 0.42068,0.1425 0.29506,0.0767 0.64675,0.0166 0.96569,0.0356 0.22424,-0.0489 0.45152,-0.0506 0.68058,-0.1068 0.2413,0.0195 0.44858,-0.0431 0.67018,-0.0712 0.28541,-0.0474 0.58785,-0.11927 0.89439,-0.1425 h 0.11039"
       id="path2"
       sodipodi:nodetypes="ccccccccc" />
    <path
       style="font-variation-settings:normal;opacity:1;vector-effect:none;fill:none;fill-opacity:1;stroke:#000000;stroke-width:1;stroke-linecap:butt;stroke-linejoin:miter;stroke-miterlimit:4;stroke-dasharray:none;stroke-dashoffset:0;stroke-opacity:1;-inkscape-stroke:none;stop-color:#000000;stop-opacity:1"
       d="m 114.80256,129.85962 c 0.56412,-0.0135 1.52809,0.0227 2.07573,-0.0772 0.1415,-0.0265 0.37662,-0.004 0.55509,-0.0115 0.14544,-0.10288 0.44964,-0.19746 0.5342,-0.4275 0.0502,-0.2576 0.20814,-0.43573 0.2138,-0.70235 0.0626,-0.40111 0.0261,-0.8145 0.0356,-1.22216 -0.0582,-0.18775 -0.0771,-0.41046 -0.0712,-0.62408 l -0.035,-0.86185"
       id="path3"
       sodipodi:nodetypes="cccccccc" />
    <path
       style="font-variation-settings:normal;opacity:1;vector-effect:none;fill:none;fill-opacity:1;stroke:#000000;stroke-width:1;stroke-linecap:butt;stroke-linejoin:miter;stroke-miterlimit:4;stroke-dasharray:none;stroke-dashoffset:0;stroke-opacity:1;-inkscape-stroke:none;stop-color:#000000;stop-opacity:1"
       d="m 114.74148,120.04068 2.16207,0.06 c 0.47627,-0.0162 1.19675,0.13847 1.21231,0.36726 -0.0117,0.21253 0.0654,0.40159 0.0713,0.60232 -0.004,0.25155 0.0889,0.51423 0.0345,0.74489 -0.0169,0.19816 -0.0362,0.39525 -0.0598,0.59222 -0.0293,0.16117 0.0599,0.41671 -0.0126,0.59069 0.004,0.20938 -0.007,0.50358 0.004,0.66379 l -0.004,-0.0222"
       id="path4"
       sodipodi:nodetypes="ccccccccc" />
  </g>
</svg>
